<?xml version="1.0" encoding="UTF-8" standalone="no"?>
<svg width="22mm" height="16mm" viewBox="0 0 22 16" version="1.1" id="svg5" xmlns="http://www.w3.org/2000/svg" xmlns:svg="http://www.w3.org/2000/svg">
<g id="checkers">
<rect width="2" height="2" x="0" y="0"></rect>
<rect width="2" height="2" x="4" y="0"></rect>
<rect width="2" height="2" x="8" y="0"></rect>
<rect width="2" height="2" x="12" y="0"></rect>
<rect width="2" height="2" x="16" y="0"></rect>
<rect width="2" height="2" x="20" y="0"></rect>
<rect width="2" height="2" x="2" y="2"></rect>
<rect width="2" height="2" x="6" y="2"></rect>
<rect width="2" height="2" x="10" y="2"></rect>
<rect width="2" height="2" x="14" y="2"></rect>
<rect width="2" height="2" x="18" y="2"></rect>
<rect width="2" height="2" x="0" y="4"></rect>
<rect width="2" height="2" x="4" y="4"></rect>
<rect width="2" height="2" x="8" y="4"></rect>
<rect width="2" height="2" x="12" y="4"></rect>
<rect width="2" height="2" x="16" y="4"></rect>
<rect width="2" height="2" x="20" y="4"></rect>
<rect width="2" height="2" x="2" y="6"></rect>
<rect width="2" height="2" x="6" y="6"></rect>
<rect width="2" height="2" x="10" y="6"></rect>
<rect width="2" height="2" x="14" y="6"></rect>
<rect width="2" height="2" x="18" y="6"></rect>
<rect width="2" height="2" x="0" y="8"></rect>
<rect width="2" height="2" x="4" y="8"></rect>
<rect width="2" height="2" x="8" y="8"></rect>
<rect width="2" height="2" x="12" y="8"></rect>
<rect width="2" height="2" x="16" y="8"></rect>
<rect width="2" height="2" x="20" y="8"></rect>
<rect width="2" height="2" x="2" y="10"></rect>
<rect width="2" height="2" x="6" y="10"></rect>
<rect width="2" height="2" x="10" y="10"></rect>
<rect width="2" height="2" x="14" y="10"></rect>
<rect width="2" height="2" x="18" y="10"></rect>
<rect width="2" height="2" x="0" y="12"></rect>
<rect width="2" height="2" x="4" y="12"></rect>
<rect width="2" height="2" x="8" y="12"></rect>
<rect width="2" height="2" x="12" y="12"></rect>
<rect width="2" height="2" x="16" y="12"></rect>
<rect width="2" height="2" x="20" y="12"></rect>
<rect width="2" height="2" x="2" y="14"></rect>
<rect width="2" height="2" x="6" y="14"></rect>
<rect width="2" height="2" x="10" y="14"></rect>
<rect width="2" height="2" x="14" y="14"></rect>
<rect width="2" height="2" x="18" y="14"></rect>

</g>
</svg>
